<?xml version="1.0" encoding="utf-8"?>
<!DOCTYPE svg PUBLIC "-//W3C//DTD SVG 1.0//EN" "http://www.w3.org/TR/2001/REC-SVG-20010904/DTD/svg10.dtd">
<svg version="1.0" xmlns="http://www.w3.org/2000/svg" width="118px" height="117px" viewBox="0 0 118 117"
  preserveAspectRatio="xMidYMid meet">
  <g fill="#ffffff">
    <path
      d="M0 58.50 l0 -58.50 59 0 59 0 0 58.50 0 58.50 -59 0 -59 0 0 -58.50z m97 42.50 c0.50 -0.30 -13 -0.50 -38.50 -0.45 -22.35 0 -38.80 0.20 -38.25 0.45 1.40 0.60 75.80 0.60 76.75 0z m3.95 -9.50 c0 -2.90 -0.20 -5.60 -0.45 -6 -0.30 -0.50 -0.50 1.55 -0.45 6.25 0 4.35 0.20 6.60 0.45 6 0.25 -0.55 0.45 -3.35 0.45 -6.25z m-83.85 -2.10 c0.10 -2.40 0 -4.20 -0.20 -4 -0.70 0.70 -1.05 6.40 -0.60 9.40 0.40 2.75 0.45 2.80 0.55 0.95 0.05 -1.10 0.20 -3.95 0.25 -6.35z m80.15 -6.90 c-0.55 -0.25 -1.95 -0.45 -3.10 -0.45 l-2.15 -0.05 0 -18.25 0 -18.25 2.20 0 c2.45 0 5.15 -1.55 6.15 -3.50 0.85 -1.65 0.85 -11.85 0 -13.45 -1.30 -2.60 -2.80 -3.10 -21.95 -7.35 -10.25 -2.30 -19.15 -4.20 -19.75 -4.20 -1.85 0 -37.30 8.05 -39.05 8.85 -2.10 1 -3.15 3.10 -3.50 6.95 -0.40 5.25 0.25 8.55 2.10 10.60 1.40 1.50 2 1.80 4.45 2 l2.85 0.20 0 18.20 0 18.20 -2.35 0 c-1.35 0 -2.75 0.25 -3.15 0.50 -0.50 0.30 13.10 0.50 38.75 0.45 22.50 0 39.05 -0.20 38.50 -0.45z" />
    <path d="M26.50 63.75 l0 -18.25 10 0 10 0 0 18.25 0 18.25 -10 0 -10 0 0 -18.25z" />
    <path d="M47.50 63.75 l0 -18.25 11.25 0 11.25 0 0 18.25 0 18.25 -11.25 0 -11.25 0 0 -18.25z" />
    <path d="M71 63.75 l0 -18.25 10 0 10 0 -0.10 18.15 -0.15 18.10 -9.85 0.15 -9.90 0.10 0 -18.25z" />
  </g>
  <g fill="#013246">
    <path
      d="M18.70 102.50 c-2 -0.80 -3.60 -3.35 -4 -6.30 -0.50 -4.25 0 -11.40 0.95 -12.70 1.35 -1.95 3.45 -3 6 -3 l2.35 0 0 -16.70 0 -16.70 -2.85 -0.20 c-2.45 -0.20 -3.05 -0.50 -4.45 -2 -1.95 -2.15 -2.45 -5 -2.10 -12.05 0.25 -5.35 1.10 -7.35 3.50 -8.50 0.90 -0.40 10.40 -2.70 21.05 -5.10 l19.40 -4.30 19.85 4.40 c20.35 4.50 22.15 5.10 23.45 7.65 0.85 1.70 0.85 14.80 0 16.50 -1 1.95 -3.70 3.50 -6.15 3.50 l-2.20 0 0 16.75 0 16.75 2.05 0 c2.65 0 5.05 1.15 6.10 2.95 0.70 1.20 0.85 2.75 0.85 8.15 0 7.40 -0.35 8.50 -2.95 10.25 l-1.70 1.15 -39.05 -0.05 c-21.50 0 -39.50 -0.20 -40.10 -0.45z m78.90 -4.35 c0.75 -0.70 0.90 -1.60 0.90 -6.65 0 -3.85 -0.20 -6 -0.60 -6.40 -0.75 -0.75 -77.20 -0.85 -78.40 -0.10 -1.05 0.65 -1.10 11.95 -0.05 13.15 0.60 0.80 3.95 0.85 38.95 0.85 34.90 0 38.35 -0.05 39.20 -0.85z m-52.60 -34.40 l0 -16.75 -8.50 0 -8.50 0 0 16.75 0 16.75 8.50 0 8.50 0 0 -16.75z m23.50 0 l0 -16.75 -9.75 0 -9.75 0 0 16.75 0 16.75 9.75 0 9.75 0 0 -16.75z m20.90 -0.10 l0.10 -16.65 -8.50 0 -8.50 0 0 16.75 0 16.75 8.40 -0.10 8.35 -0.15 0.15 -16.60z m6.75 -22.85 c0.70 -0.55 0.85 -1.50 0.85 -5.75 l0 -5.10 -1.60 -0.65 c-0.90 -0.35 -9.55 -2.40 -19.20 -4.55 l-17.50 -3.85 -18.50 4.10 c-15.35 3.35 -18.60 4.25 -19.35 5.15 -0.80 0.90 -0.90 1.75 -0.75 5.40 0.10 2.70 0.40 4.60 0.85 5.10 0.60 0.80 3.85 0.85 37.50 0.85 29.80 -0.05 36.95 -0.15 37.70 -0.70z" />
  </g>
  <g fill="#abd2d9">
    <path
      d="M19.45 42.15 c-0.50 -0.55 -0.75 -2.65 -0.85 -6.60 -0.15 -5.10 -0.05 -6 0.75 -6.90 0.75 -0.90 4.15 -1.80 20.15 -5.35 l19.25 -4.25 18.90 4.20 c10.35 2.35 19.30 4.45 19.85 4.75 0.90 0.50 1 1.05 1 7.10 0 5.65 -0.10 6.65 -0.85 7.20 -0.75 0.55 -8.15 0.65 -39.20 0.70 -35 0 -38.40 -0.05 -39 -0.85z" />
  </g>
</svg>