<?xml version="1.0" standalone="no"?>
<!DOCTYPE svg PUBLIC "-//W3C//DTD SVG 20010904//EN" "http://www.w3.org/TR/2001/REC-SVG-20010904/DTD/svg10.dtd">
<svg version="1.0" xmlns="http://www.w3.org/2000/svg" width="101.000000pt" height="103.000000pt"
  viewBox="0 0 101.000000 103.000000" preserveAspectRatio="xMidYMid meet">
  <g transform="translate(0.000000,103.000000) scale(0.100000,-0.100000)" fill="currentColor" stroke="none">
    <path d="M209 936 c-45 -16 -73 -35 -99 -69 -47 -59 -50 -81 -50 -359 0 -145
4 -279 10 -298 13 -47 63 -106 113 -133 41 -21 52 -22 327 -22 274 0 287 1
326 22 60 32 100 83 114 145 8 36 11 138 8 313 -3 291 -4 292 -77 358 -22 19
-57 40 -78 46 -57 16 -548 14 -594 -3z m385 -220 c155 -65 194 -258 76 -377
-130 -130 -350 -62 -389 122 -14 64 -14 224 -1 250 10 17 22 19 146 19 93 0
145 -4 168 -14z" />
    <path d="M423 575 c-11 -31 4 -106 28 -131 30 -32 87 -33 117 -1 23 25 29 75
12 107 -20 37 -144 57 -157 25z" />
  </g>
</svg>