<?xml version="1.0" encoding="UTF-8"?>
<!DOCTYPE svg PUBLIC "-//W3C//DTD SVG 1.1//EN" "http://www.w3.org/Graphics/SVG/1.1/DTD/svg11.dtd">
<svg xmlns="http://www.w3.org/2000/svg" version="1.1" width="113px" height="114px" viewBox="0 0 118 117"
  style="shape-rendering:geometricPrecision; text-rendering:geometricPrecision; image-rendering:optimizeQuality; fill-rule:evenodd; clip-rule:evenodd"
  xmlns:xlink="http://www.w3.org/1999/xlink">
  <g>
    <path style="opacity:1" fill="#fdfefe"
      d="M -0.5,-0.5 C 37.1667,-0.5 74.8333,-0.5 112.5,-0.5C 112.5,37.5 112.5,75.5 112.5,113.5C 74.8333,113.5 37.1667,113.5 -0.5,113.5C -0.5,75.5 -0.5,37.5 -0.5,-0.5 Z" />
  </g>
  <g>
    <path style="opacity:1" fill="#0e394d"
      d="M 51.5,9.5 C 53.8568,9.33669 56.1902,9.50335 58.5,10C 68.1667,13.6667 77.8333,17.3333 87.5,21C 90.3333,22.5 92.5,24.6667 94,27.5C 101.632,64.2375 88.6319,90.2375 55,105.5C 20.2132,88.9181 7.87991,61.9181 18,24.5C 19.7309,22.3834 21.8976,20.8834 24.5,20C 33.7962,16.9624 42.7962,13.4624 51.5,9.5 Z" />
  </g>
  <g>
    <path style="opacity:1" fill="#c4dee3"
      d="M 51.5,14.5 C 52.8333,42.8333 52.8333,71.1667 51.5,99.5C 21.2972,82.3812 11.9639,57.5478 23.5,25C 32.7448,21.2087 42.0781,17.7087 51.5,14.5 Z" />
  </g>
  <g>
    <path style="opacity:1" fill="#7c9ea8"
      d="M 51.5,14.5 C 51.56,13.9569 51.8933,13.6236 52.5,13.5C 53.8333,42.5 53.8333,71.5 52.5,100.5C 51.8933,100.376 51.56,100.043 51.5,99.5C 52.8333,71.1667 52.8333,42.8333 51.5,14.5 Z" />
  </g>
  <g>
    <path style="opacity:1" fill="#607e8c"
      d="M 58.5,14.5 C 57.502,42.9951 57.1687,71.6618 57.5,100.5C 56.1704,71.6639 56.1704,42.6639 57.5,13.5C 58.1067,13.6236 58.44,13.9569 58.5,14.5 Z" />
  </g>
  <g>
    <path style="opacity:1" fill="#fdfdfe"
      d="M 58.5,14.5 C 68.5936,18.0322 78.5936,21.8655 88.5,26C 98.0962,59.2902 87.7628,84.1235 57.5,100.5C 57.1687,71.6618 57.502,42.9951 58.5,14.5 Z" />
  </g>
</svg>