<?xml version="1.0" encoding="utf-8"?>
<!DOCTYPE svg PUBLIC "-//W3C//DTD SVG 1.0//EN" "http://www.w3.org/TR/2001/REC-SVG-20010904/DTD/svg10.dtd">
<svg version="1.0" xmlns="http://www.w3.org/2000/svg" width="118px" height="106px" viewBox="0 0 118 106"
  preserveAspectRatio="xMidYMid meet">
  <g fill="#ffffff">
    <path
      d="M0 53 l0 -53 59 0 59 0 0 53 0 53 -59 0 -59 0 0 -53z m59.60 39.35 c-0.65 -0.70 -1.10 -1.80 -1.10 -2.75 l0 -1.60 19.65 -0.05 c10.75 -0.05 20.15 -0.25 20.85 -0.45 0.70 -0.20 -8.15 -0.40 -19.60 -0.45 l-20.90 -0.05 0 -1.60 c0 -0.85 0.40 -2.05 0.85 -2.60 0.45 -0.60 -0.45 0.20 -2.05 1.80 l-2.95 2.80 2.70 3.05 c1.50 1.65 2.90 3.05 3.15 3.05 0.25 0 0 -0.50 -0.60 -1.15z m-24.85 -4.85 c-0.20 -0.30 -3.50 -0.50 -8.40 -0.45 -5 0 -7.70 0.20 -7.10 0.45 1.45 0.60 15.90 0.60 15.50 0z m-22.15 -23.50 l-0.15 -18 46.65 0.10 46.65 0.15 0 17.60 c0 11.95 0.15 17.30 0.50 16.75 0.30 -0.55 0.50 -10 0.50 -25.60 0 -24.50 0 -24.75 -1.10 -26.80 -1.40 -2.65 -4.15 -5 -6.50 -5.65 -1.05 -0.30 -5.10 -0.55 -9 -0.55 -6.65 0 -7.10 0.05 -7.40 1 -0.30 0.95 -0.75 1 -8.75 1 l-8.45 0 -4.10 -4.10 c-2.25 -2.30 -3.65 -3.55 -3.05 -2.85 0.70 0.80 1.10 1.95 1.10 3.10 l0 1.85 -19.70 0 -19.70 0 -2.65 1.40 c-1.95 1 -3.10 2.05 -4.20 3.85 l-1.50 2.40 0 24.80 c0 21.05 0.20 27.55 0.90 27.55 0.05 0 0.05 -8.10 -0.05 -18z" />
  </g>
  <g fill="#aad2d7">
    <path
      d="M12.60 36.35 c0.15 -9.55 0.45 -10.45 3.55 -12.35 1.50 -0.95 2.65 -1 22.50 -1 l20.85 0 0 1.60 c0 0.95 -0.45 2.05 -1.10 2.75 -0.60 0.65 -0.85 1.15 -0.55 1.15 0.30 0 2.15 -1.70 4.15 -3.80 3.05 -3.20 3.70 -3.70 4.10 -3 0.40 0.70 1.50 0.80 7.50 0.80 5.95 0 7.15 -0.15 7.65 -0.85 0.55 -0.75 0.70 -0.70 1.65 0.25 1.05 1.05 1.55 1.10 9.50 1.10 12.70 0 13.20 0.50 13.50 13.65 l0.20 8.35 -46.85 0 -46.85 0 0.20 -8.65z" />
  </g>
  <g fill="#003247">
    <path
      d="M61.75 97 c-1.05 -1.10 -2.25 -2 -2.65 -2 -0.90 0 -7.05 -6.50 -7.10 -7.50 0 -0.85 5.95 -7 6.80 -7 0.25 0 1.40 -0.90 2.45 -2 2.15 -2.20 3.90 -2.60 4.75 -1.05 0.25 0.55 0.50 1.15 0.50 1.35 0 0.20 -1.50 1.75 -3.35 3.50 l-3.40 3.20 19.65 0 c21.65 0 21.45 0.05 23.70 -3.10 1.15 -1.65 1.15 -1.65 1.15 -18.15 l0 -16.50 -45.15 -0.15 -45.15 -0.10 0.15 16.65 c0.15 18.45 0.15 18.30 3.55 20.35 1.40 0.90 2.55 1 9.95 1 6.90 0 8.45 0.15 9.10 0.80 0.95 0.90 0.95 1 0.30 2.25 -0.50 0.90 -1.15 0.95 -9.40 0.95 -8.55 0 -9 -0.05 -11.50 -1.30 -3.25 -1.60 -5.40 -4.70 -5.85 -8.35 -0.15 -1.45 -0.25 -13.65 -0.15 -27.15 l0.15 -24.55 1.50 -2.40 c1.10 -1.80 2.25 -2.85 4.20 -3.85 l2.65 -1.40 19.70 0 c10.85 0 19.70 -0.20 19.70 -0.40 0 -0.20 -1.35 -1.70 -3 -3.35 -3.45 -3.40 -3.80 -4.90 -1.25 -5.15 1.15 -0.10 1.85 0.20 3 1.40 0.80 0.80 1.70 1.50 2 1.50 0.75 0 7.75 7.20 7.75 8 0 0.95 -6.60 7.50 -7.55 7.50 -0.50 0 -1.35 0.65 -1.95 1.50 -1.20 1.70 -3.15 2.40 -4.25 1.50 -1.30 -1.10 -0.85 -2.15 2.35 -5.35 l3.10 -3.15 -19.45 0 c-18.45 0 -19.60 0.05 -21.10 1 -3 1.80 -3.40 2.95 -3.55 10.85 l-0.20 7.15 45.35 0 45.35 0 -0.20 -6.85 c-0.20 -7.75 -0.80 -9.50 -3.55 -11.15 -1.40 -0.90 -2.55 -1 -9.90 -1 -9.20 0 -10.35 -0.30 -9.75 -2.65 l0.30 -1.35 8.65 0 c4.70 0 9.45 0.25 10.50 0.55 2.35 0.65 5.10 3 6.50 5.65 1.10 2.05 1.10 2.25 1.10 28.30 0 26.05 0 26.25 -1.10 28.30 -1.40 2.65 -4.15 5 -6.50 5.65 -1.20 0.35 -9.30 0.55 -21.35 0.55 l-19.45 0 3.30 3.45 c1.85 1.90 3.35 3.60 3.35 3.80 0 0.90 -1.15 2.25 -1.90 2.25 -0.50 0 -1.80 -0.90 -2.85 -2z" />
  </g>
</svg>